<svg xmlns="http://www.w3.org/2000/svg" width="144" height="144" viewBox="0 0 144 144" role="img" aria-label="vFlow app icon">
  <defs>
    <clipPath id="icon-clip">
      <rect x="12" y="12" width="120" height="120" rx="30" />
    </clipPath>
    <filter id="soft-shadow" x="-20%" y="-20%" width="140%" height="140%">
      <feDropShadow dx="0" dy="8" stdDeviation="10" flood-color="#005320" flood-opacity="0.18" />
    </filter>
  </defs>

  <rect x="12" y="12" width="120" height="120" rx="30" fill="#3DDC84" filter="url(#soft-shadow)" />
  <g clip-path="url(#icon-clip)">
    <rect x="12" y="12" width="120" height="120" fill="#3DDC84" />

    <g opacity="0.2" stroke="#FFFFFF" stroke-width="0.9">
      <path d="M22 12V132M33 12V132M44 12V132M55 12V132M66 12V132M78 12V132M89 12V132M100 12V132M111 12V132M122 12V132" />
      <path d="M12 22H132M12 33H132M12 44H132M12 55H132M12 66H132M12 78H132M12 89H132M12 100H132M12 111H132M12 122H132" />
      <path d="M33 44H111M33 55H111M33 66H111M33 78H111M33 89H111M33 100H111" />
      <path d="M44 33V111M55 33V111M66 33V111M78 33V111M89 33V111M100 33V111" />
    </g>

    <g transform="translate(18 18)">
      <g transform="scale(1.02) translate(-1.2 -1.2)">
        <path
          d="M52.35,22.44C53.3,21.62 54.7,21.62 55.65,22.44L63.37,29.2C63.78,29.56 64.29,29.77 64.83,29.81L75.11,30.59C76.34,30.68 77.32,31.66 77.41,32.89L78.19,43.17C78.23,43.71 78.44,44.22 78.8,44.63L85.56,52.35C86.38,53.3 86.38,54.7 85.56,55.65L78.8,63.37C78.44,63.78 78.23,64.29 78.19,64.83L77.41,75.11C77.32,76.34 76.34,77.32 75.11,77.41L64.83,78.19C64.29,78.23 63.78,78.44 63.37,78.8L55.65,85.56C54.7,86.38 53.3,86.38 52.35,85.56L44.63,78.8C44.22,78.44 43.71,78.23 43.17,78.19L32.89,77.41C31.66,77.32 30.68,76.34 30.59,75.11L29.81,64.83C29.77,64.29 29.56,63.78 29.2,63.37L22.44,55.65C21.62,54.7 21.62,53.3 22.44,52.35L29.2,44.63C29.56,44.22 29.77,43.71 29.81,43.17L30.59,32.89C30.68,31.66 31.66,30.68 32.89,30.59L43.17,29.81C43.71,29.77 44.22,29.56 44.63,29.2L52.35,22.44Z"
          fill="#005320" />
        <path
          d="M66.8,36.75C69.92,36.7 73.08,37.26 70.62,40.51C68.19,43.73 65.72,38.05 64.16,45.87C64.18,45.89 64.2,45.91 64.22,45.92C66.57,45.86 70.36,45.3 70.67,47.37C71.27,51.32 66.79,50.86 63.29,50.77C62.79,53.6 62.29,56.44 61.79,59.27C60.55,65.89 59.85,70.35 53.11,71.33C51.94,71.5 49.45,71.69 48.61,71.12C48.18,70.83 48,70.3 48.04,69.52C48.3,65.36 53.37,67.98 55.02,65.4C56.38,63.27 57.46,53.96 57.91,50.77C57.88,50.75 57.84,50.73 57.81,50.72C56.12,50.75 54.43,50.79 52.75,50.82C51.63,54.16 46.37,63.99 43.96,65.76C43.22,66.3 41.56,66.62 40.45,66.17C39.8,65.91 39.29,65.19 39.06,64.52C38.24,62.23 35.65,47.67 36.78,46.65C42.47,41.5 41.42,56.08 43.08,57.88C45.7,57.56 47.96,49.34 49.44,47.11C50.49,45.53 54.5,45.64 57.24,45.87C57.74,45.89 58.24,45.91 58.74,45.92C59.1,44.33 59.46,42.73 59.82,41.13C61.12,38.11 63.23,37.61 66.8,36.75Z"
          fill="#C8DED1" stroke="#000000" stroke-width="0.25" fill-rule="evenodd" />
      </g>
    </g>
  </g>
</svg>
